PathFileType	4	(X/Y/Z)	Patient4_TMGait_0pt6_02_right_36.trc.trc
DataRate	CameraRate	NumFrames	NumMarkers	Units	OrigDataRate	OrigDataStartFrame	OrigNumFrames
80.924855491330	80.924855491330	4	33	mm	80.924855491330	106	       141
Frame#	Time	Sacral			L.Shoulder			Chest			R.Shoulder			Neck			R.ASIS			L.ASIS			R.Thigh.Superior			R.Thigh.Lateral			R.Thigh.Inferior			R.Patella			L.Thigh.Superior			L.Thigh.Lateral			L.Thigh.Inferior			L.Patella			L.Shank.Superior			L.Shank.Lateral			L.Shank.Inferior			R.Shank.Superior			R.Shank.Lateral			R.Shank.Inferior			R.Heel			R.Midfoot.Superior			R.Midfoot.Lateral			R.Toe			L.Heel			L.Midfoot.Lateral			L.Midfoot.Superior			L.Toe			L.Elbow			L.Wrist			R.Elbow			R.Wrist			
		X1	Y1	Z1	X2	Y2	Z2	X3	Y3	Z3	X4	Y4	Z4	X5	Y5	Z5	X6	Y6	Z6	X7	Y7	Z7	X8	Y8	Z8	X9	Y9	Z9	X10	Y10	Z10	X11	Y11	Z11	X12	Y12	Z12	X13	Y13	Z13	X14	Y14	Z14	X15	Y15	Z15	X16	Y16	Z16	X17	Y17	Z17	X18	Y18	Z18	X19	Y19	Z19	X20	Y20	Z20	X21	Y21	Z21	X22	Y22	Z22	X23	Y23	Z23	X24	Y24	Z24	X25	Y25	Z25	X26	Y26	Z26	X27	Y27	Z27	X28	Y28	Z28	X29	Y29	Z29	X30	Y30	Z30	X31	Y31	Z31	X32	Y32	Z32	X33	Y33	Z33	

106	44.607500000000	814.317700408938	1026.486707862777	398.884691380206	1046.515630141833	1431.874676587850	208.405932610903	1136.915313149498	1353.722945147102	372.644275269921	1056.905322640857	1442.260105617382	540.159592773569	1051.153184800985	1494.219535849172	356.406382855037	1035.622283253320	949.144203817901	517.688900189970	1025.570490299171	959.326831658895	243.917920704202	1123.941049410372	794.608102749985	491.746680098767	1094.988783270405	677.587123081899	575.455392569556	1186.836761674703	641.841157111427	495.501355869084	1217.348712075518	531.300691362452	522.479070039645	1052.866994906302	745.765808152081	276.307790256443	951.423620067934	638.133053335430	223.931137649331	1028.900312692104	554.387261323417	287.382633028667	1022.405063341837	485.946529422368	300.543007515825	993.042628426009	417.570735107630	295.963289218528	896.688447473592	306.057104999225	251.278859517306	942.558630227815	195.633758456005	327.906875478309	1146.454730022675	452.014814818776	534.813045098763	1028.879197195371	404.705802228619	596.361227444490	1025.145151203142	292.615902450231	553.684841419571	832.129977739649	212.222998080183	527.112009553813	1003.771522579311	169.419718706553	575.112970505969	893.939723922963	163.211691916565	605.692544073538	1074.990349385103	63.419102127460	609.891294808772	807.420258521411	43.274711278162	377.322435071647	883.295565542010	36.780776533175	299.117623680870	967.396699531131	96.818089445239	324.593544902788	1095.303151062684	39.924987183693	301.451454330146	1010.771997761228	1093.396700608962	60.985878201598	1217.694329036930	935.473344033024	64.238028474953	932.109374829303	1124.667941705672	676.237549840073	912.959282744408	862.701799064872	685.507275752693	
107	44.619857142857	813.147956258890	1026.857523487948	398.896615229898	1046.394253437504	1431.820739262116	208.191920109973	1136.136748109315	1353.860190797056	372.932370213725	1055.579190032656	1442.898917338237	539.811714472695	1050.465776512044	1494.392327140107	356.027551633530	1034.405809899018	949.307604215184	517.959406968386	1024.506780277594	959.700234023942	244.064124643548	1123.472286960747	796.700172843425	491.598479921321	1096.228550333175	679.461793319117	575.780312581329	1188.195494881297	644.694381215810	495.685493384489	1220.662845401421	535.326709226573	522.768224378768	1049.644099904452	745.334486910572	276.203759374338	946.705095382504	638.784216554645	223.584332464494	1023.168858616621	554.173662198916	286.751985292672	1015.951922179062	486.030064595572	299.822463075956	986.505316770434	417.902607619008	295.250942384500	889.536301102089	306.746342129091	250.900877951046	935.496165144795	196.124523960993	327.303242639232	1152.500136906164	454.282235688288	535.308087936999	1037.283367038077	402.526373380711	597.666785132802	1037.396656094929	290.357915981142	554.809839756781	847.207990499600	202.699061131810	529.582668208592	1020.833872815662	166.628845361415	576.586518685873	911.432846398764	156.275742692432	607.924770987125	1096.230404342086	63.295296396456	610.990606607217	800.072634201360	44.054918739500	377.105106520644	875.941802559193	37.027090466285	299.012355632458	960.215895584154	96.967800141414	324.257727721956	1087.904695229096	39.783456947225	301.418984434568	1015.261838766075	1093.930442467774	59.353989767350	1228.167244954271	944.728829845447	63.840466479695	923.503336963316	1129.475305755689	676.902783649279	898.271611097296	868.247251964742	687.272611332785	
108	44.632214285714	812.040100253406	1027.195638856658	399.102929634789	1046.200954165313	1431.637346345985	208.046830877486	1135.382852407903	1353.930379619811	373.260727102103	1054.404530259679	1443.564448221158	539.534641386839	1049.817470159166	1494.489634357582	355.677667755669	1033.212133098636	949.340758131878	518.369064923409	1023.411813076337	960.012687348153	244.324903659175	1122.713199291737	798.399792355074	491.540077658561	1096.954654417858	680.928776515508	576.164470767114	1188.991823384917	647.002693220806	495.992828003106	1223.212915355534	538.907858130117	523.164993898462	1046.486536975302	744.938351436618	276.129002048149	941.962467795581	639.483558497934	223.341860034983	1017.413731406908	554.013901843865	286.175204088175	1009.492426300637	486.192304232647	299.151577552615	979.957062121524	418.293806995939	294.592793148955	882.369782405749	307.493986478330	250.583280135011	928.458071231679	196.654035622610	326.705217709126	1157.975410373413	456.187130530851	535.840816102034	1045.456450706074	399.833518915488	599.036207491440	1049.612333909144	287.754724184712	555.920382596951	862.739008292027	192.589342373302	532.021273289251	1038.110034639399	163.590308298157	577.901150060808	929.377392625568	148.952471165073	610.083262679220	1117.774363065204	63.288767187877	611.924731325367	792.748480308667	44.909918883217	376.873979551816	868.591426784840	37.300358028579	298.898622574661	953.052779691047	97.130631632133	323.912566476405	1080.504732913497	39.637771052843	301.387297707911	1019.675030796264	1094.326142686333	57.984513615862	1237.996514083060	953.797937313943	63.825212953812	915.367961097455	1134.386693650287	677.573076819417	884.903012682706	873.873997749999	688.779300630358	
109	44.644571428571	811.008177476386	1027.482721623120	399.496565936367	1045.935993026398	1431.313421295393	207.966970821903	1134.656614579955	1353.924494674700	373.620746082620	1053.388659168560	1444.235565538638	539.335374208099	1049.205106599848	1494.498009220213	355.356543225925	1032.057056388871	949.224066799133	518.918987180968	1022.330927238402	960.286232916686	244.698735418256	1121.688674310197	799.657939301253	491.602784909547	1097.140516065045	681.923404213230	576.611889275052	1189.218179861829	648.687421761767	496.442904918044	1224.969836530292	541.959206734451	523.673632223471	1043.385634373818	744.561113837100	276.090437175273	937.212347778469	640.215111321560	223.209866670250	1011.655249005019	553.896425369724	285.662759192050	1003.049948842262	486.412140417096	298.538278721505	973.410218737097	418.727726932553	293.998696486232	875.199523339768	308.285412590846	250.335370438116	921.448205977637	197.206390502421	326.123125889783	1162.828663122451	457.683541919724	536.401879568720	1053.358748128656	396.626475993666	600.443426546117	1061.739695930625	284.836339976778	556.987385386716	878.728586232805	181.960837935917	534.349000895601	1055.542973527675	160.367627868438	579.016281943041	947.741186795162	141.301124621320	612.084854562079	1139.523487272915	63.488447620537	612.635568637530	785.441526746761	45.816782591050	376.640142187269	861.240680366757	37.592315250096	298.783042548789	945.900287789785	97.301683889716	323.565191752770	1073.100088682581	39.491290563081	301.357232572712	1024.000591545523	1094.565453533399	56.881486871051	1247.164635410210	962.563531644078	64.170169307258	907.785154905660	1139.303374759776	678.240529927697	872.850804115807	879.429021323576	690.066138596089	
